<svg width="40" height="35" viewBox="0 0 40 35" fill="none" xmlns="http://www.w3.org/2000/svg">
<path d="M4.8877 17.1709C4.8877 26.5134 12.5441 34.0502 22.0349 34.0502C31.5257 34.0502 39.1024 26.5134 39.1024 17.1709H21.9551H4.8877Z" fill="#DC4C2C"/>
<path d="M21.9553 0.370117V17.1709H39.1025C39.1025 7.90692 31.4461 0.370117 21.9553 0.370117Z" fill="#F7A278"/>
<path d="M21.9552 0.370605C12.5442 0.370605 4.8877 7.90741 4.8877 17.1714H22.0349V0.370605H21.9552Z" fill="#C06346"/>
<path d="M18.446 26.5921H2.65466C1.77736 26.5921 1.05957 25.8855 1.05957 25.0219V9.39879C1.05957 8.5352 1.77736 7.82861 2.65466 7.82861H18.446C19.3234 7.82861 20.0411 8.5352 20.0411 9.39879V25.0219C20.0411 25.8855 19.3234 26.5921 18.446 26.5921Z" fill="#9B341F"/>
<path d="M11.1884 12.5391H6.72217V21.8815H8.63628V18.5841H10.7896C12.5443 18.5841 14.0596 17.171 14.0596 15.3653V15.2868C14.0596 13.7951 12.7835 12.5391 11.1884 12.5391ZM12.0657 15.6793C12.0657 16.4644 11.4277 17.171 10.5504 17.171H8.71602V14.0307H10.6301C11.4277 14.0307 12.1455 14.6588 12.1455 15.5224V15.6793H12.0657Z" fill="white"/>
</svg>
