<svg width="36" height="35" viewBox="0 0 36 35" fill="none" xmlns="http://www.w3.org/2000/svg">
<path d="M33.9041 1.48242H1.77197V32.8196H33.9041V1.48242Z" fill="#2A0034"/>
<path fill-rule="evenodd" clip-rule="evenodd" d="M0.311401 0.0180664V34.2839H35.3646V0.0180664H0.311401ZM1.77195 1.48242H33.9041V32.8195H1.77195V1.48242Z" fill="#EA77FF"/>
<path fill-rule="evenodd" clip-rule="evenodd" d="M9.51278 8.04288C9.51278 7.94038 9.54198 7.86716 9.65883 7.86716C10.5936 7.82323 11.9664 7.79395 13.4124 7.79395C17.4582 7.79395 19.2255 10.0198 19.2255 12.8605C19.2255 16.5801 16.538 18.1762 13.2371 18.1762C12.6822 18.1762 12.4923 18.1469 12.0979 18.1469V23.77C12.0979 23.8872 12.0542 23.9457 11.9227 23.9457H9.67343C9.55659 23.9457 9.49817 23.9018 9.49817 23.77V8.04288H9.51278ZM12.0979 15.8186C12.4339 15.8479 12.6968 15.8479 13.281 15.8479C14.9898 15.8479 16.5964 15.2475 16.5964 12.9192C16.5964 11.0595 15.4572 10.1223 13.5 10.1223C12.9159 10.1223 12.3608 10.1515 12.0979 10.1662V15.8186ZM21.4455 14.4861C21.4455 14.3103 21.4455 13.8856 21.3724 13.0656C21.3724 12.9485 21.387 12.9192 21.4893 12.8752C22.3802 12.5091 24.4688 11.8648 26.8349 11.8648C26.9517 11.8648 27.0101 11.8941 27.0101 12.0112V14.1345C27.0101 14.2517 26.9663 14.281 26.8495 14.281C25.9293 14.2371 24.6003 14.3543 24.0891 14.5739V23.7994C24.0891 23.9165 24.0452 23.975 23.9138 23.975H21.6207C21.5038 23.975 21.4455 23.931 21.4455 23.7994V14.4861Z" fill="#EA77FF"/>
</svg>
