<svg width="36" height="35" viewBox="0 0 36 35" fill="none" xmlns="http://www.w3.org/2000/svg">
<path d="M33.6158 1.48242H1.48376V32.8196H33.6158V1.48242Z" fill="#001D26"/>
<path fill-rule="evenodd" clip-rule="evenodd" d="M0.0231934 0.0180664V34.2839H35.0764V0.0180664H0.0231934ZM1.48374 1.48242H33.6158V32.8195H1.48374V1.48242Z" fill="#00C8FF"/>
<path fill-rule="evenodd" clip-rule="evenodd" d="M8.49438 8.07267C8.49438 7.99946 8.71347 7.92624 8.7865 7.92624C9.73585 7.85303 11.1234 7.85303 12.5839 7.85303C16.6004 7.85303 18.207 10.0496 18.207 12.9051C18.207 16.6391 15.5051 18.2499 12.2188 18.2499C11.6346 18.2499 11.4885 18.2499 11.0503 18.2499V23.8876C11.0503 24.0341 10.9773 24.0341 10.9043 24.0341H8.64045C8.49438 24.0341 8.49438 23.9609 8.49438 23.8876V8.07267ZM11.0503 15.8337C11.4155 15.8337 11.6346 15.8337 12.2188 15.8337C13.8984 15.8337 15.5051 15.248 15.5051 12.9051C15.5051 11.0746 14.3366 10.1228 12.4379 10.1228C11.8537 10.1228 11.2694 10.1228 11.0503 10.196V15.8337ZM23.684 14.0765C22.5157 14.0765 22.1505 14.6623 22.1505 15.1748C22.1505 15.6874 22.4426 16.0534 23.9762 16.8588C26.24 17.9571 26.9703 19.0553 26.9703 20.5929C26.9703 22.9359 25.2176 24.1805 22.8077 24.1805C21.5663 24.1805 20.4709 23.8876 19.8136 23.5216C19.7406 23.4484 19.6675 23.3751 19.6675 23.3019V21.1786C19.6675 21.0322 19.7406 20.959 19.8136 21.0322C20.763 21.6179 21.7854 21.9108 22.7347 21.9108C23.9032 21.9108 24.3413 21.3983 24.3413 20.7393C24.3413 20.2269 23.9762 19.7143 22.5157 18.9821C20.4709 17.9571 19.5945 17.0052 19.5945 15.3213C19.5945 13.4176 21.0551 11.88 23.6111 11.88C24.8525 11.88 25.7288 12.0996 26.24 12.3193C26.3861 12.3925 26.3861 12.539 26.3861 12.6122V14.589C26.3861 14.7355 26.313 14.8087 26.1671 14.7355C25.5828 14.2962 24.6335 14.0765 23.684 14.0765Z" fill="#00C8FF"/>
</svg>
